<svg xmlns="http://www.w3.org/2000/svg" viewBox="0 0 520 132" width="520" height="132" fill="none" role="img" aria-label="litmus">
  <title>litmus</title>
  <defs>
    <radialGradient id="glow" cx="20%" cy="34%" r="58%">
      <stop offset="0%" stop-color="#3fb950" stop-opacity="0.16" />
      <stop offset="100%" stop-color="#3fb950" stop-opacity="0" />
    </radialGradient>
  </defs>
  <rect x="0.5" y="0.5" width="519" height="131" rx="18" fill="#0b0e14" stroke="#222a38" />
  <rect x="0.5" y="0.5" width="519" height="131" rx="18" fill="url(#glow)" />
  <!-- mark: a test checklist, two passing rows and one pending -->
  <g transform="translate(26,12)">
    <g stroke="#3fb950" stroke-width="2.6" stroke-linecap="round" stroke-linejoin="round" fill="none">
      <rect x="14" y="15" width="18" height="18" rx="5" />
      <path d="M19 24 l4 4 l7 -9" />
      <rect x="14" y="43" width="18" height="18" rx="5" />
      <path d="M19 52 l4 4 l7 -9" />
    </g>
    <rect x="14" y="71" width="18" height="18" rx="5" fill="none" stroke="#3a4150" stroke-width="2.6" />
    <g stroke-linecap="round" stroke-width="5">
      <line x1="44" y1="24" x2="92" y2="24" stroke="#3fb950" />
      <line x1="44" y1="52" x2="92" y2="52" stroke="#3fb950" />
      <line x1="44" y1="80" x2="76" y2="80" stroke="#3a4150" />
    </g>
  </g>
  <!-- wordmark -->
  <text x="150" y="66" font-family="'Segoe UI', system-ui, -apple-system, Helvetica, Arial, sans-serif" font-size="40" font-weight="700" letter-spacing="-1.4" fill="#e8edf5">litmus</text>
  <text x="152" y="93" font-family="'Segoe UI', system-ui, -apple-system, Helvetica, Arial, sans-serif" font-size="15" font-weight="500" letter-spacing="0.2" fill="#9aa4b2">unit tests for your LLM prompts</text>
</svg>
